<svg xmlns="http://www.w3.org/2000/svg" xmlns:xlink="http://www.w3.org/1999/xlink" viewBox="0 0 500 500" width="500" height="500" preserveAspectRatio="xMidYMid meet" style="width: 100%; height: 100%; transform: translate3d(0px, 0px, 0px); content-visibility: visible;"><defs><clipPath id="__lottie_element_119"><rect width="500" height="500" x="0" y="0"></rect></clipPath><g id="__lottie_element_132"><g transform="matrix(1,0,0,1,250,251)" opacity="1" style="display: block;"><g opacity="1" transform="matrix(1,0,0,1,-0.5,-27.25)"><path fill="rgb(18,19,49)" fill-opacity="1" d=" M3.625,-33.32400131225586 C-12.604999542236328,-33.32400131225586 -27.895000457763672,-31.60300064086914 -41.303001403808594,-28.565000534057617 C-71.75499725341797,-21.665000915527344 -92.5,-7.9679999351501465 -92.5,7.801000118255615 C-92.5,30.513999938964844 -49.4630012512207,48.92599868774414 3.625,48.92599868774414 C56.7130012512207,48.92599868774414 99.75,30.513999938964844 99.75,7.801000118255615 C99.75,-8.161999702453613 78.49099731445312,-22.00200080871582 47.42399978637695,-28.816999435424805 C34.28900146484375,-31.697999954223633 19.400999069213867,-33.32400131225586 3.625,-33.32400131225586z"></path></g></g></g><filter id="__lottie_element_138" filterUnits="objectBoundingBox" x="0%" y="0%" width="100%" height="100%"><feComponentTransfer in="SourceGraphic"><feFuncA type="table" tableValues="1.0 0.0"></feFuncA></feComponentTransfer></filter><mask id="__lottie_element_132_2" mask-type="alpha"><g filter="url(#__lottie_element_138)"><rect width="500" height="500" x="0" y="0" fill="#ffffff" opacity="0"></rect><use xlink:href="#__lottie_element_132"></use></g></mask><g id="__lottie_element_139"><g transform="matrix(1,0,0,1,250,245)" opacity="1" style="display: block;"><path fill="rgb(255,0,0)" fill-opacity="1" d=" M3,-199.56 C-25.17,-199.56 -48,-176.73 -48,-148.56 C-48,-120.39 -25.17,-97.56 3,-97.56 C31.17,-97.56 54,-120.39 54,-148.56 C54,-176.73 31.17,-199.56 3,-199.56z M3,-236.5 C-1.42,-236.5 -5,-232.92 -5,-228.5 C-5,-224.08 -1.42,-220.5 3,-220.5 C7.42,-220.5 11,-224.08 11,-228.5 C11,-232.92 7.42,-236.5 3,-236.5z"></path><g opacity="1" transform="matrix(1,0,0,1,-4,-101.5)"></g></g></g><filter id="__lottie_element_145" filterUnits="objectBoundingBox" x="0%" y="0%" width="100%" height="100%"><feComponentTransfer in="SourceGraphic"><feFuncA type="table" tableValues="1.0 0.0"></feFuncA></feComponentTransfer></filter><mask id="__lottie_element_139_2" mask-type="alpha"><g filter="url(#__lottie_element_145)"><rect width="500" height="500" x="0" y="0" fill="#ffffff" opacity="0"></rect><use xlink:href="#__lottie_element_139"></use></g></mask></defs><g clip-path="url(#__lottie_element_119)"><g transform="matrix(1,0,0,1,244,256.5)" opacity="1" style="display: block;"><g opacity="1" transform="matrix(1,0,0,1,-88,-78)"><path fill="rgb(242,139,168)" fill-opacity="1" d=" M133.86700439453125,212.34800720214844 C134,220.5 133.86700439453125,217.48300170898438 133.86700439453125,217.48300170898438 C133.86700439453125,217.48300170898438 133.86700439453125,225.61199951171875 133.86700439453125,225.61199951171875 C133.86700439453125,233.552001953125 140.1320037841797,238 148.093994140625,238 C148.093994140625,238 170.83399963378906,238 170.83399963378906,238 C170.83399963378906,238 170.83399963378906,200.16099548339844 170.83399963378906,200.16099548339844 C180.8159942626953,194.83700561523438 189.89199829101562,188.0570068359375 197.82000732421875,180.12899780273438 C213.26300048828125,164.68600463867188 224.322998046875,144.88299560546875 228.9810028076172,122.73899841308594 C228.9810028076172,122.73899841308594 234.052001953125,122.73899841308594 234.052001953125,122.73899841308594 C244.67599487304688,122.73899841308594 253.30499267578125,114.11100006103516 253.30499267578125,103.48699951171875 C253.30499267578125,103.48699951171875 253.30499267578125,84.53299713134766 253.30499267578125,84.53299713134766 C253.30499267578125,73.90899658203125 244.67599487304688,65.27999877929688 234.052001953125,65.27999877929688 C234.052001953125,65.27999877929688 226.4340057373047,65.27999877929688 226.4340057373047,65.27999877929688 C218.1269989013672,38.0880012512207 199.9770050048828,15.187000274658203 176.13499450683594,0.7080000042915344 C176.13499450683594,0.7080000042915344 174.64300537109375,-31.118000030517578 197.95700073242188,-49.314998626708984 C171.27000427246094,-52 143.66600036621094,-48.35200119018555 128.01600646972656,-15.996999740600586 C128.01600646972656,-15.996999740600586 81.02100372314453,-15.881999969482422 81.02100372314453,-15.881999969482422 C49.308998107910156,-15.881999969482422 20.60300064086914,-3.0320000648498535 -0.164000004529953,17.735000610351562 C-20.95400047302246,38.525001525878906 -33.80400085449219,67.23100280761719 -33.80400085449219,98.94300079345703 C-33.80400085449219,140.88999938964844 -11.315999984741211,177.58200073242188 22.277999877929688,197.61399841308594 C22.277999877929688,197.61399841308594 22.277999877929688,223.61199951171875 22.277999877929688,223.61199951171875 C22.277999877929688,231.552001953125 28.72599983215332,238 36.6879997253418,238 C36.6879997253418,238 59.428001403808594,238 59.428001403808594,238 C59.428001403808594,238 59.356998443603516,225.7030029296875 59.356998443603516,225.7030029296875 C59.356998443603516,225.7030029296875 60,219 59.356998443603516,212.34800720214844"></path></g></g><g transform="matrix(1,0,0,1,238.5,248.5)" opacity="0.5" style="mix-blend-mode: multiply; display: block;"><g opacity="1" transform="matrix(1,0,0,1,0,0)"><path fill="rgb(242,139,168)" fill-opacity="1" d=" M-42.608001708984375,154.36099243164062 C-42.608001708984375,154.36099243164062 -42.608001708984375,128.36099243164062 -42.608001708984375,128.36099243164062 C-76.20800018310547,108.33100128173828 -98.68800354003906,71.64099884033203 -98.68800354003906,29.69099998474121 C-98.68800354003906,-2.0190000534057617 -85.83799743652344,-30.7189998626709 -65.0479965209961,-51.50899887084961 C-49.0880012512207,-67.47899627685547 -27.667999267578125,-79.15899658203125 -0.878000020980835,-84.42900085449219 C-0.878000020980835,-84.42900085449219 -18.31399917602539,-84.42900085449219 -18.31399917602539,-84.42900085449219 C-45.104000091552734,-79.15899658203125 -66.52400207519531,-67.47899627685547 -82.48400115966797,-51.50899887084961 C-103.27400207519531,-30.7189998626709 -116.1240005493164,-2.0190000534057617 -116.1240005493164,29.69099998474121 C-116.1240005493164,71.64099884033203 -93.64399719238281,108.33100128173828 -60.04399871826172,128.36099243164062 C-60.04399871826172,128.36099243164062 -60.04399871826172,154.36099243164062 -60.04399871826172,154.36099243164062 C-60.04399871826172,162.30099487304688 -53.59400177001953,168.75100708007812 -45.63399887084961,168.75100708007812 C-45.63399887084961,168.75100708007812 -28.197999954223633,168.75100708007812 -28.197999954223633,168.75100708007812 C-36.15800094604492,168.75100708007812 -42.608001708984375,162.30099487304688 -42.608001708984375,154.36099243164062z"></path></g></g><g mask="url(#__lottie_element_139_2)" style="display: block;"><g transform="matrix(1,0,0,1,244,256.5)" opacity="1"><g opacity="1" transform="matrix(1,0,0,1,-88,-78)"><path stroke-linecap="round" stroke-linejoin="round" fill-opacity="0" stroke="rgb(236,107,139)" stroke-opacity="1" stroke-width="7" d=" M-29.841999053955078,65.4260025024414 C-29.841999053955078,65.4260025024414 -48.77299880981445,65.4260025024414 -48.77299880981445,65.4260025024414 C-48.77299880981445,65.4260025024414 -74.41899871826172,64.55999755859375 -74.41899871826172,37.85200119018555 C-74.41899871826172,13.890999794006348 -41.16299819946289,14.744000434875488 -41.16299819946289,35.617000579833984 C-41.16299819946289,53.01599884033203 -64.0250015258789,52.5629997253418 -64.0250015258789,52.5629997253418 C-64.0250015258789,52.5629997253418 -88.65599822998047,52.5629997253418 -88.65599822998047,52.5629997253418"></path></g></g></g><g mask="url(#__lottie_element_132_2)" style="display: block;"><g transform="matrix(1,0,0,1,250,250)" opacity="1"><g opacity="1" transform="matrix(1,0,0,1,-4,-101.5)"><path fill="rgb(255,199,56)" fill-opacity="1" d=" M7,-104.34617614746094 C-21.16699981689453,-104.34617614746094 -44,-81.51317596435547 -44,-53.34617233276367 C-44,-25.17917251586914 -21.16699981689453,-2.34617280960083 7,-2.34617280960083 C35.16699981689453,-2.34617280960083 58,-25.17917251586914 58,-53.34617233276367 C58,-81.51317596435547 35.16699981689453,-104.34617614746094 7,-104.34617614746094z"></path></g><g opacity="1" transform="matrix(1,0,0,1,-4,-101.5)"><path fill="rgb(255,199,56)" fill-opacity="0" d=" M7,-135 C2.5820000171661377,-135 -1,-131.41799926757812 -1,-127 C-1,-122.58200073242188 2.5820000171661377,-119 7,-119 C11.418000221252441,-119 15,-122.58200073242188 15,-127 C15,-131.41799926757812 11.418000221252441,-135 7,-135z"></path></g></g></g><g transform="matrix(0.9965799450874329,0,0,0.9965799450874329,229.67599487304688,130)" opacity="0.5" style="mix-blend-mode: multiply; display: none;"><g opacity="1" transform="matrix(1,0,0,1,0,0)" style="mix-blend-mode: multiply;"><path fill="rgb(255,199,56)" fill-opacity="1" d=" M-18.006999969482422,0 C-18.006999969482422,-26.481000900268555 2.1760001182556152,-48.242000579833984 27.99799919128418,-50.75299835205078 C26.354000091552734,-50.91299819946289 24.687999725341797,-51 23.00200080871582,-51 C-5.164999961853027,-51 -27.99799919128418,-28.16699981689453 -27.99799919128418,0 C-27.99799919128418,28.16699981689453 -5.164999961853027,51 23.00200080871582,51 C24.687999725341797,51 26.354000091552734,50.91299819946289 27.99799919128418,50.75299835205078 C2.1760001182556152,48.242000579833984 -18.006999969482422,26.481000900268555 -18.006999969482422,0z"></path></g></g><g transform="matrix(1,0,0,1,230.67599487304688,94.9909896850586)" opacity="0.5" style="mix-blend-mode: multiply; display: block;"><g opacity="1" transform="matrix(1,0,0,1,0,0)" style="mix-blend-mode: multiply;"><path fill="rgb(255,199,56)" fill-opacity="1" d=" M-18.006999969482422,0 C-18.006999969482422,-26.481000900268555 2.1760001182556152,-48.242000579833984 27.99799919128418,-50.75299835205078 C26.354000091552734,-50.91299819946289 24.687999725341797,-51 23.00200080871582,-51 C-5.164999961853027,-51 -27.99799919128418,-28.16699981689453 -27.99799919128418,0 C-27.99799919128418,28.16699981689453 -5.164999961853027,51 23.00200080871582,51 C24.687999725341797,51 26.354000091552734,50.91299819946289 27.99799919128418,50.75299835205078 C2.1760001182556152,48.242000579833984 -18.006999969482422,26.481000900268555 -18.006999969482422,0z"></path></g></g><g transform="matrix(1,0,0,1,244,256.5)" opacity="1" style="display: block;"><g opacity="1" transform="matrix(1,0,0,1,84.75,-29.625)"><path fill="rgb(58,51,71)" fill-opacity="1" d=" M-2,-16.125 C-9.524999618530273,-16.125 -15.625,-10.024999618530273 -15.625,-2.5 C-15.625,5.025000095367432 -9.524999618530273,11.125 -2,11.125 C5.525000095367432,11.125 11.625,5.025000095367432 11.625,-2.5 C11.625,-10.024999618530273 5.525000095367432,-16.125 -2,-16.125z"></path></g></g><g transform="matrix(1,0,0,1,244,256.5)" opacity="1" style="display: block;"><g opacity="1" transform="matrix(1,0,0,1,-88,-78)" style="mix-blend-mode: multiply;"><path stroke-linecap="round" stroke-linejoin="round" fill-opacity="0" stroke="rgb(58,51,71)" stroke-opacity="1" stroke-width="7" d=" M61.32699966430664,14.494000434875488 C61.32699966430664,14.494000434875488 68.41300201416016,10.98799991607666 95.91300201416016,10.994000434875488 C123.41300201416016,11 132.9459991455078,14.494000434875488 132.9459991455078,14.494000434875488"></path></g></g></g></svg>